<?xml version="1.0" encoding="UTF-8" standalone="no"?>
<svg
   xmlns:dc="http://purl.org/dc/elements/1.1/"
   xmlns:cc="http://creativecommons.org/ns#"
   xmlns:rdf="http://www.w3.org/1999/02/22-rdf-syntax-ns#"
   xmlns:svg="http://www.w3.org/2000/svg"
   xmlns="http://www.w3.org/2000/svg"
   xmlns:sodipodi="http://sodipodi.sourceforge.net/DTD/sodipodi-0.dtd"
   xmlns:inkscape="http://www.inkscape.org/namespaces/inkscape"
   width="210mm"
   height="297mm"
   viewBox="0 0 210 297"
   version="1.1"
   id="svg8"
   inkscape:version="1.0.1 (3bc2e813f5, 2020-09-07)"
   sodipodi:docname="BL_Logo.svg">
  <defs
     id="defs2" />
  <sodipodi:namedview
     id="base"
     pagecolor="#ffffff"
     bordercolor="#666666"
     borderopacity="1.0"
     inkscape:pageopacity="0.0"
     inkscape:pageshadow="2"
     inkscape:zoom="0.70710678"
     inkscape:cx="331.49854"
     inkscape:cy="554.68495"
     inkscape:document-units="mm"
     inkscape:current-layer="layer1"
     inkscape:document-rotation="0"
     showgrid="false"
     showborder="false"
     inkscape:object-nodes="true"
     inkscape:snap-grids="true"
     inkscape:snap-to-guides="true"
     inkscape:window-width="1920"
     inkscape:window-height="1017"
     inkscape:window-x="-8"
     inkscape:window-y="-8"
     inkscape:window-maximized="1" />
  <metadata
     id="metadata5">
    <rdf:RDF>
      <cc:Work
         rdf:about="">
        <dc:format>image/svg+xml</dc:format>
        <dc:type
           rdf:resource="http://purl.org/dc/dcmitype/StillImage" />
        <dc:title />
      </cc:Work>
    </rdf:RDF>
  </metadata>
  <g
     inkscape:label="Layer 1"
     inkscape:groupmode="layer"
     id="layer1">
    <g
       id="g898"
       style="fill:#38aecc;fill-opacity:1;stroke:none;stroke-opacity:1"
       transform="matrix(1.9137093,0,0,1.39603,-33.229605,-3.8133506)">
      <g
         id="g944"
         style="fill:#38aecc;fill-opacity:1;stroke:none;stroke-opacity:1">
        <g
           id="g930"
           style="fill:#38aecc;fill-opacity:1;stroke:none;stroke-opacity:1">
          <path
             style="fill:#38aecc;fill-opacity:1;stroke:none;stroke-width:3;stroke-linecap:round;stroke-linejoin:round;stroke-miterlimit:4;stroke-dasharray:none;stroke-opacity:1"
             d="m 72.21416,109.10464 71.23449,-0.0928 c 0,0 -10.21501,-5.11313 -13.53825,-19.84725 -1.72791,-8.37279 -4.10201,-16.40417 -8.06979,-16.40417 -3.88092,0 -5.52951,8.43633 -7.80521,17.99167 -2.29587,7.14843 -5.09584,12.89808 -10.18645,13.75834 -4.335965,0.23964 -7.691127,-3.99575 -9.392712,-9.78959 C 91.627702,85.76222 85.606234,27.781254 72.231243,27.781254"
             id="path926"
             sodipodi:nodetypes="cccccccc" />
          <path
             style="fill:#38aecc;fill-opacity:1;stroke:none;stroke-width:3;stroke-linecap:round;stroke-linejoin:round;stroke-miterlimit:4;stroke-dasharray:none;stroke-opacity:1"
             d="m 72.248326,109.10464 -71.2344865,-0.0928 c 0,0 10.2150055,-5.11313 13.5382425,-19.84725 1.727918,-8.37279 4.10201,-16.40417 8.069792,-16.40417 3.880919,0 5.529515,8.43633 7.805207,17.99167 2.295874,7.14843 5.095841,12.89808 10.186459,13.75834 4.335961,0.23964 7.691123,-3.99575 9.392708,-9.78959 2.828536,-8.95862 8.850004,-66.939586 22.224995,-66.939586"
             id="path845"
             sodipodi:nodetypes="cccccccc" />
        </g>
        <g
           id="g936"
           transform="matrix(1,0,0,-1,0.034166,218.20928)"
           style="fill:#38aecc;fill-opacity:1;stroke:none;stroke-opacity:1">
          <path
             style="fill:#38aecc;fill-opacity:1;stroke:none;stroke-width:3;stroke-linecap:round;stroke-linejoin:round;stroke-miterlimit:4;stroke-dasharray:none;stroke-opacity:1"
             d="m 72.248326,109.10464 -71.2344865,-0.0928 c 0,0 10.2150055,-5.11313 13.5382425,-19.84725 1.727918,-8.37279 4.10201,-16.40417 8.069792,-16.40417 3.880919,0 5.529515,8.43633 7.805207,17.99167 2.295874,7.14843 5.095841,12.89808 10.186459,13.75834 4.335961,0.23964 7.691123,-3.99575 9.392708,-9.78959 2.828536,-8.95862 8.850004,-66.939586 22.224995,-66.939586"
             id="path932"
             sodipodi:nodetypes="cccccccc" />
          <path
             style="fill:#38aecc;fill-opacity:1;stroke:none;stroke-width:3;stroke-linecap:round;stroke-linejoin:round;stroke-miterlimit:4;stroke-dasharray:none;stroke-opacity:1"
             d="m 72.21416,109.10464 71.23449,-0.0928 c 0,0 -10.21501,-5.11313 -13.53825,-19.84725 -1.72791,-8.37279 -4.10201,-16.40417 -8.06979,-16.40417 -3.88092,0 -5.52951,8.43633 -7.80521,17.99167 -2.29587,7.14843 -5.09584,12.89808 -10.18645,13.75834 -4.335965,0.23964 -7.691127,-3.99575 -9.392712,-9.78959 C 91.627702,85.76222 85.606234,27.781254 72.231243,27.781254"
             id="path934"
             sodipodi:nodetypes="cccccccc" />
        </g>
      </g>
    </g>
  </g>
</svg>
