<?xml version="1.0" encoding="UTF-8" standalone="no"?>
<svg
   xmlns:dc="http://purl.org/dc/elements/1.1/"
   xmlns:cc="http://creativecommons.org/ns#"
   xmlns:rdf="http://www.w3.org/1999/02/22-rdf-syntax-ns#"
   xmlns:svg="http://www.w3.org/2000/svg"
   xmlns="http://www.w3.org/2000/svg"
   xmlns:sodipodi="http://sodipodi.sourceforge.net/DTD/sodipodi-0.dtd"
   xmlns:inkscape="http://www.inkscape.org/namespaces/inkscape"
   width="210mm"
   height="297mm"
   viewBox="0 0 210 297"
   version="1.1"
   id="svg8"
   inkscape:version="1.0.1 (3bc2e813f5, 2020-09-07)"
   sodipodi:docname="BL-Logo.svg">
  <defs
     id="defs2">
    <rect
       x="30.238095"
       y="64.633929"
       width="48.759483"
       height="47.702886"
       id="rect42" />
  </defs>
  <sodipodi:namedview
     id="base"
     pagecolor="#ffffff"
     bordercolor="#666666"
     borderopacity="1.0"
     inkscape:pageopacity="0.0"
     inkscape:pageshadow="2"
     inkscape:zoom="1.4"
     inkscape:cx="412.78301"
     inkscape:cy="498.75609"
     inkscape:document-units="mm"
     inkscape:current-layer="layer1"
     inkscape:document-rotation="0"
     showgrid="false"
     inkscape:window-width="1431"
     inkscape:window-height="1030"
     inkscape:window-x="160"
     inkscape:window-y="0"
     inkscape:window-maximized="0" />
  <metadata
     id="metadata5">
    <rdf:RDF>
      <cc:Work
         rdf:about="">
        <dc:format>image/svg+xml</dc:format>
        <dc:type
           rdf:resource="http://purl.org/dc/dcmitype/StillImage" />
        <dc:title></dc:title>
      </cc:Work>
    </rdf:RDF>
  </metadata>
  <g
     inkscape:label="Layer 1"
     inkscape:groupmode="layer"
     id="layer1">
    <text
       xml:space="preserve"
       id="text40"
       style="font-style:normal;font-weight:normal;font-size:17.6389px;line-height:1.25;font-family:sans-serif;white-space:pre;shape-inside:url(#rect42);fill:#000000;fill-opacity:1;stroke:none;" />
    <path
       id="path64"
       d="m 41.994002,116.67148 c -1.621753,0.28084 -3.247565,0.50607 -4.892106,0.58362 -0.36249,-0.0345 -0.735293,-0.011 -1.087472,-0.10351 -1.80009,-0.47292 -3.053641,-2.4511 -3.208303,-4.23201 -0.0592,-0.68167 0.0993,-1.36487 0.14895,-2.0473 0.264456,-0.76042 0.421717,-1.56707 0.793369,-2.28124 1.512247,-2.90595 4.262633,-5.10543 7.088407,-6.63304 0.191651,-0.1036 -0.57295,0.59506 -0.360945,0.54488 1.736199,-0.41093 3.391612,-1.10904 5.087419,-1.66356 1.848385,-0.42623 3.679828,-0.93407 5.545151,-1.2787 4.194161,-0.774904 9.034375,-1.260372 13.275638,-1.563045 3.903906,-0.278601 8.227536,-0.453186 12.153317,-0.281419 1.692831,0.07407 3.376142,0.293772 5.064215,0.440658 1.4033,0.285954 2.838019,0.446813 4.209899,0.857862 2.924189,0.876162 5.802702,2.608954 7.537411,5.188234 1.228659,1.82686 1.148175,2.52666 1.542909,4.60715 -0.05248,0.78022 0.0041,1.57556 -0.157432,2.34067 -0.763913,3.61755 -3.512852,5.88526 -6.054704,8.27255 -0.04687,0.40266 -0.259096,0.8203 -0.140597,1.20797 0.445305,1.45681 2.943786,2.36798 4.140507,2.93845 2.743039,1.3076 0.809046,0.32686 3.472855,1.72125 2.310265,1.36962 4.48467,3.10539 5.71049,5.55528 0.24235,0.48438 0.41868,0.99907 0.62802,1.49861 0.75506,2.18383 0.97345,4.55485 0.69164,6.85126 -0.17041,1.38858 -0.45054,2.14336 -0.84172,3.48186 -1.12387,3.03559 -3.012771,5.76723 -5.682414,7.64584 -0.58683,0.41295 -1.226524,0.74513 -1.839786,1.11769 0.826048,-0.53559 2.012595,-0.73932 2.47814,-1.60678 0.356656,-0.66456 -1.382612,0.60428 -2.086083,0.87626 -0.707387,0.27349 -1.42354,0.52485 -2.144757,0.75946 -1.917888,0.62388 -3.843814,1.04201 -5.824961,1.39645 -3.710498,0.55644 -7.470849,0.56056 -11.213714,0.57067 -2.679134,0.0234 -5.357386,-0.1119 -8.001547,-0.5473 -2.103671,-0.43652 -4.152088,-1.13604 -6.066457,-2.11054 -1.172268,-0.61974 -2.278607,-1.3736 -3.574068,-1.7228 -1.203582,-0.32442 -2.014993,-0.36884 -3.278243,-0.51981 -2.415307,-0.15369 -4.835179,-0.27086 -7.255142,-0.32029 -1.524596,-0.0311 -2.597907,-0.058 -4.096433,0.12529 -0.536059,0.0656 -1.062821,0.19244 -1.594231,0.28866 -2.767084,0.89201 -7.858469,3.09352 -8.711046,6.43264 -0.06936,0.27166 -0.05008,0.55852 -0.07512,0.83778 0.166751,0.27016 0.257944,0.60534 0.50025,0.81047 1.311801,1.11052 4.113554,1.08939 5.647687,1.11281 2.581558,0.0394 3.930743,-0.10178 6.513788,-0.2706 1.14087,-0.19642 2.299446,-0.30878 3.422607,-0.58926 5.119767,-1.27851 10.015392,-4.47623 13.900285,-7.85591 1.416328,-1.23214 5.867191,-7.65958 6.831841,-9.00925 4.925692,-7.77587 8.603607,-16.29247 11.254859,-25.09485 1.499933,-4.9799 2.036717,-7.63273 3.200376,-12.63347 1.242338,-5.409973 2.084419,-10.8974 3.160344,-16.339583 0,0 -4.626461,2.259674 -4.626461,2.259674 v 0 c -0.76436,5.354778 -1.407621,10.731032 -2.565363,16.021839 -1.119505,5.04841 -1.569474,7.509 -3.09059,12.5338 -2.671816,8.826 -6.377067,17.35855 -11.491955,25.05313 -1.175276,1.60337 -2.288995,3.25373 -3.525827,4.8101 -1.157615,1.4567 -2.700271,2.62278 -3.651689,4.22179 -0.173519,0.29163 1.237816,0.0373 0.9837,0.26219 -0.868484,0.76865 -2.024346,1.1412 -3.089034,1.6011 -2.947078,1.27303 -3.539096,1.19999 -6.655367,1.76888 -2.759064,0.18975 -3.623124,0.31825 -6.359731,0.24058 -1.261867,-0.0358 -3.914389,-0.0767 -5.088138,-0.87656 -0.156464,-0.10663 -0.212384,-0.31352 -0.318577,-0.47028 0.165396,-0.9178 0.424891,-1.50289 1.054843,-2.22449 0.239811,-0.2747 1.122302,-0.90192 0.786059,-0.76081 -0.820531,0.34433 -5.988725,3.10524 -2.276478,1.39434 0.534514,-0.12358 1.062167,-0.28192 1.603544,-0.37074 1.535446,-0.25188 2.557905,-0.24284 4.132136,-0.22922 2.380078,0.0206 4.761439,0.1395 7.132217,0.34761 1.185738,0.15049 1.976808,0.20646 3.108817,0.5007 1.265274,0.32889 2.364258,1.04241 3.487827,1.68199 1.953048,1.0381 4.085863,1.67175 6.225749,2.20487 0.8665,0.16084 1.610775,0.31934 2.488123,0.4032 1.871041,0.17885 3.765992,0.15662 5.642269,0.1703 3.767233,-0.0302 7.556531,-0.009 11.295507,-0.52266 2.787348,-0.45559 5.435986,-1.11589 8.08995,-2.10148 0.708498,-0.26311 1.429679,-0.50447 2.102437,-0.84884 2.203318,-1.12785 4.343519,-2.37495 6.51528,-3.56243 0.610997,-0.39762 1.249807,-0.75549 1.833017,-1.19287 2.66386,-1.99776 4.50021,-4.84061 5.59586,-7.95268 0.3847,-1.40604 0.64801,-2.1408 0.79826,-3.59811 0.2444,-2.37027 0.004,-4.81972 -0.78419,-7.06593 -0.21536,-0.52605 -0.39308,-1.06912 -0.64608,-1.57814 -1.26395,-2.54299 -3.5325,-4.35161 -5.92768,-5.76502 -0.57263,-0.30299 -1.138057,-0.62 -1.717896,-0.90896 -1.445059,-0.72013 -2.046478,-0.90012 -3.458887,-1.66715 -0.436521,-0.23706 -1.768491,-0.87108 -1.956491,-1.58473 -0.07381,-0.28017 0.128384,-0.56506 0.192577,-0.84759 2.53801,-2.4859 5.101151,-4.8637 5.743495,-8.56966 0.139656,-0.80573 0.05821,-1.63446 0.08732,-2.4517 -0.459351,-2.12703 -0.425387,-2.96843 -1.721472,-4.82399 -1.850922,-2.649902 -4.929399,-4.421327 -7.979053,-5.283501 -1.423625,-0.402473 -2.908511,-0.543446 -4.362767,-0.81517 -1.732172,-0.129921 -3.460528,-0.329422 -5.196515,-0.389763 -4.234114,-0.147175 -8.091085,0.06101 -12.32323,0.356235 -3.858501,0.269158 -9.289595,0.729779 -13.136187,1.383728 -1.85303,0.315032 -3.672702,0.801934 -5.509053,1.202902 -7.061767,2.110549 -4.898176,1.105871 -13.014907,5.771549 -2.911097,1.67337 -5.675958,3.96273 -7.185054,7.03763 -0.375717,0.76555 -0.528461,1.62162 -0.792692,2.43243 -0.04141,0.74496 -0.193122,1.49196 -0.124219,2.23488 0.181586,1.95792 1.510519,4.15496 3.428439,4.83647 0.356767,0.12678 0.747098,0.12354 1.120648,0.18531 1.621271,-0.0111 3.220622,-0.23186 4.824396,-0.45425 0,0 4.490027,-3.36056 4.490027,-3.36056 z"
       style="stroke-width:0.264583" />
    <path
       id="path66"
       style="stroke-width:0.948348"
       transform="scale(0.26458333)"
       d="m 535.51367,333.17773 c -1.40071,0.007 -2.80326,0.17004 -4.19726,0.53125 -1.6263,0.42142 -3.20873,1.06826 -4.66797,1.9004 -7.06594,4.02931 -13.90753,8.43845 -20.86133,12.6582 -9.8377,11.28577 -11.1246,23.66967 -11.43164,37.4414 -2.61084,0.24519 -5.22249,0.47972 -7.83985,0.63477 -13.93891,0.82571 -27.92711,0.24336 -41.83203,-0.86328 L 428.25,397.05859 c 14.65273,0.49949 29.34223,0.63582 43.98438,-0.26367 4.5371,-0.27855 9.06261,-0.72693 13.59374,-1.08984 2.82285,-0.37131 5.6842,-0.76819 8.54493,-1.24219 1.63,27.21331 6.47463,54.08815 9.99609,81.0918 1.44271,12.35353 2.9509,24.80555 3.11719,37.24414 -10.01785,-4.59486 -22.49676,-10.29093 -32.43945,-10.78516 -2.39263,-0.11905 -8.05565,1.14019 -10.40626,1.60352 -6.93892,3.87976 -14.07217,7.43178 -20.8164,11.64062 -1.92737,1.2028 -3.93057,5.15194 -4.70703,7.00977 -2.71797,6.50298 -3.74921,13.5236 -4.06446,20.51758 0.28271,8.25535 -0.0843,11.02718 2.11915,19.17187 2.50807,9.27092 7.07651,18.01282 14.21679,24.56055 2.0973,1.92329 4.57377,3.38523 6.86133,5.07812 2.34671,0.64698 4.61445,1.74642 7.04102,1.94141 10.93115,0.8784 22.98058,-9.19386 30,-13.68359 8.05379,-5.15139 13.34096,-15.28502 17.51367,-23.42579 3.97015,-9.79395 5.63435,-12.76203 7.34961,-20.91211 8.98324,4.43538 17.9131,8.98251 26.97851,13.24415 5.0496,2.37377 21.34713,9.62898 26.32813,11.85546 19.955,7.40032 16.00874,7.3423 37.08649,11.97517 15.75798,3.46359 31.09378,7.24324 56.08835,5.61702 20.87284,-2.44193 24.55134,-3.12967 31.08213,-4.89883 17.28872,-4.68345 16.71119,-3.96898 32.11789,-13.10648 5.63207,-3.68361 11.69487,-7.21731 17.3615,-10.5965 0.34043,-0.53595 -2.71437,-0.4889 -2.71437,-0.4889 -5.47832,1.9096 -3.12548,0.97715 -5.47832,1.9096 -8.20057,2.9692 -9.90619,4.14224 -16.34381,6.62919 -19.35675,6.3229 -19.48122,6.30083 -37.60821,9.8096 -16.22733,1.7232 -27.96754,2.33034 -44.09142,0.83399 -5.4748,-0.50808 -12.13564,-2.2085 -21.53456,-5.46094 -14.93099,-5.16677 -16.80839,-5.90083 -31.36388,-11.9082 -7.67153,-3.47203 -18.46972,-8.32038 -26.11914,-11.93164 -13.24614,-6.25336 -26.2749,-12.9581 -39.49414,-19.26758 0.56376,-6.91179 0.67586,-14.16314 0.38672,-20.41797 -0.18255,-3.94662 -2.89196,-28.26817 -3.26953,-31.74023 -3.26065,-25.72816 -7.29815,-51.42826 -8.62305,-77.34961 2.10936,-0.81498 4.17043,-1.74724 6.1582,-2.84375 7.64965,-4.21973 21.3942,-10.58893 28.26953,-18.99219 1.48483,-1.81479 2.51662,-3.95555 3.77539,-5.9336 2.58996,-6.17369 6.6005,-13.7908 3.73633,-20.625 -1.3209,-3.15171 -2.60857,-3.58967 -5.20703,-5.5664 -3.78564,-1.71278 -7.95997,-3.1046 -12.16211,-3.08399 z m -14.95312,11.34766 c 3.59897,-0.0498 7.23386,1.02099 10.53906,2.27149 2.2021,1.43689 3.42967,1.76912 4.54297,4.3125 2.63406,6.01747 -1.47859,13.65218 -3.91211,18.95703 -1.29052,1.83778 -2.38459,3.82844 -3.87109,5.51171 -1.35238,1.53135 -5.99809,3.84321 -5.7754,4.5879 -4.91454,1.80634 -8.01022,2.63592 -11.38086,3.26953 0.43158,-13.0235 0.79877,-27.09738 9.03321,-37.95508 0.24999,-0.32962 0.52023,-0.64261 0.79297,-0.95313 0.0104,-1.6e-4 0.0208,-0.002 0.0312,-0.002 z m -4.5625,0.75781 c -1.50493,0.79826 -3.00588,1.60348 -4.51563,2.39258 -1.42189,0.74317 2.71785,-1.75471 4.22656,-2.30078 0.0958,-0.0347 0.19299,-0.0594 0.28907,-0.0918 z m -56.41797,168.27149 c 12.77484,-0.17726 26.719,6.75814 38.23242,11.49219 3.02143,1.3037 6.01387,2.66848 8.99609,4.05468 -0.29755,2.86121 -0.68938,5.721 -1.21484,8.57422 -2.38231,12.93574 -3.83461,14.50106 -8.9375,26.17969 -4.3135,7.41079 -5.81014,11.059 -11.44141,16.91992 -1.54393,0.55799 -3.5575,1.40271 -4.72656,1.39063 -2.25199,-0.0227 -4.41269,-0.90044 -6.61914,-1.35157 -2.22319,-1.45447 -4.64682,-2.64358 -6.66992,-4.36523 -9.5438,-8.12145 -14.38904,-20.70855 -15.53125,-32.91211 -0.28573,-3.05461 -0.0739,-6.13536 -0.11133,-9.20313 0.56636,-6.93543 1.84379,-13.89982 5.00586,-20.17187 0.0546,-0.10825 0.11411,-0.21442 0.16992,-0.32227 0.96276,-0.16215 1.91855,-0.27226 2.84766,-0.28515 z m 295.85156,29.80859 c -0.0143,-0.002 -0.0253,0.004 -0.0391,0.004 -0.0108,0.0254 -0.0163,0.0528 -0.0273,0.0781 0.0145,-0.004 0.0307,-0.005 0.0449,-0.01 0.007,-0.0234 0.0147,-0.0485 0.0215,-0.0723 z"
       sodipodi:nodetypes="cssccscccccccscsscsscssccscscsccccccsscscsccsscscccscscsccscsscsscsccscccccccscscccccc" />
  </g>
</svg>
